<?xml version="1.0" encoding="utf-8"?>
<!-- Generator: Adobe Illustrator 19.0.0, SVG Export Plug-In . SVG Version: 6.00 Build 0)  -->
<svg version="1.1" id="Layer_1" xmlns="http://www.w3.org/2000/svg" xmlns:xlink="http://www.w3.org/1999/xlink" x="0px" y="0px"
	 viewBox="0 0 1230 130" style="enable-background:new 0 0 1230 130;" xml:space="preserve">
<style type="text/css">
	.st0{fill:#004FDB;}
	.st1{fill:#FDA821;}
	.st2{fill:#FFFFFF;}
</style>
<g id="XMLID_1_">
	<g id="XMLID_6_">
		<path id="XMLID_7_" class="st0" d="M238.4,66.1V8.9h15.7c6.3,0,10.8,0.2,13.5,0.6c2.5,0.4,4.7,1.1,6.6,2.2
			c2.1,1.2,3.7,2.8,4.8,4.6c1.1,2,1.7,4.3,1.7,6.9c0,3.3-0.8,5.9-2.5,7.8c-1.7,1.9-4.3,3.3-7.9,4.3c4,0.3,7.1,1.7,9.5,4.2
			c2.3,2.6,3.4,6,3.4,10.2c0,3-0.7,5.7-2,8c-1.3,2.4-3.1,4.2-5.5,5.4c-1.8,1-4.2,1.7-7.2,2.3c-3.1,0.4-7.8,0.6-14.1,0.6H238.4z
			 M252.9,31.7h3.1c3.9,0,6.5-0.4,7.9-1.2c1.4-0.9,2.1-2.3,2.1-4.4c0-2.2-0.7-3.7-2-4.6c-1.5-0.9-4.1-1.4-7.9-1.4h-3.4V31.7z
			 M252.9,54.4h5.5c3.7,0,6.3-0.5,7.8-1.4c1.6-0.9,2.3-2.4,2.3-4.6c0-2.4-0.7-4-2.1-5.1c-1.4-0.9-4-1.4-7.8-1.4h-5.7V54.4z"/>
		<path id="XMLID_14_" class="st0" d="M292.3,8.9h15.6v27.8c0,4.2,0.1,7.2,0.3,8.8c0.3,2,0.6,3.4,1.1,4.5c0.5,1.5,1.6,2.6,3.1,3.3
			c1.5,0.8,3.3,1.2,5.5,1.2c2.1,0,3.9-0.4,5.4-1.2c1.4-0.7,2.4-1.8,3.1-3.3c0.4-1,0.8-2.5,1-4.5c0.2-1.6,0.4-4.5,0.4-8.8v-3.9V8.9
			h15.5v30.2c0,6.2-0.4,10.8-1.1,13.8c-0.7,3-2,5.6-3.8,7.7c-2,2.4-4.7,4.1-8.1,5.2c-3.3,1.2-7.5,1.8-12.4,1.8
			c-5,0-9.2-0.6-12.4-1.8c-3.3-1.1-6-2.8-8.1-5.2c-1.8-2.1-3.1-4.6-3.8-7.7c-0.8-3.1-1.2-7.7-1.2-13.8v-5.9V8.9z"/>
		<path id="XMLID_17_" class="st0" d="M357.6,47.6c2.4,2.7,4.7,4.6,6.9,5.9c2.3,1.3,4.5,2,6.7,2c2.1,0,3.8-0.6,5.1-1.7
			c1.4-1.1,2-2.5,2-4.3c0-1.9-0.6-3.3-1.7-4.4c-1.2-1-3.8-2.1-7.9-3.2c-5.6-1.5-9.5-3.5-11.8-5.9c-2.3-2.4-3.5-5.8-3.5-10
			c0-5.5,1.8-9.9,5.5-13.4c3.6-3.5,8.4-5.2,14.2-5.2c3.3,0,6.3,0.4,9,1.3c2.8,0.9,5.5,2.1,8,3.8l-4.9,11.2c-1.7-1.5-3.5-2.6-5.5-3.4
			c-1.9-0.8-3.7-1.1-5.5-1.1c-1.8,0-3.3,0.5-4.6,1.4c-1.2,0.9-1.8,2-1.8,3.4c0,1.4,0.5,2.5,1.5,3.4c1.1,0.9,3.1,1.7,6,2.5
			c0.1,0,0.2,0,0.3,0.1c0.1,0,0.2,0,0.4,0.1c6.4,1.7,10.5,3.6,12.6,5.7c1.3,1.3,2.4,3,3.1,5c0.7,1.9,1,4.1,1,6.6c0,6-2,10.9-6,14.6
			c-4,3.7-9.3,5.5-15.9,5.5c-4.1,0-7.7-0.7-10.9-2c-3.2-1.3-6.3-3.5-9.4-6.4L357.6,47.6z"/>
		<path id="XMLID_21_" class="st0" d="M402,66.1V8.9h15.7v57.2H402z"/>
		<path id="XMLID_23_" class="st0" d="M430.3,66.1V8.9h15l21.6,29.4c0.5,0.8,1.2,2,2.1,3.6c1.1,2.1,2.1,4.2,3.1,6.4
			c-0.4-3-0.6-5.1-0.7-6.3c-0.2-1.9-0.2-3.5-0.2-5V8.9h15v57.2h-15l-21.6-29.5c-0.3-0.4-1-1.6-2.1-3.7c-0.9-1.7-2-3.8-3.1-6.3
			c0.3,2,0.5,4.1,0.7,6.3c0.1,2.4,0.2,4.1,0.2,5v28.2H430.3z"/>
		<path id="XMLID_25_" class="st0" d="M498.5,66.1V8.9h35v12.6h-19.8v9.9h18.7v12.3h-18.7v9.6h19.8v12.8H498.5z"/>
		<path id="XMLID_27_" class="st0" d="M546.3,47.6c2.4,2.7,4.7,4.6,6.9,5.9c2.3,1.3,4.5,2,6.7,2c2.1,0,3.8-0.6,5.1-1.7
			c1.4-1.1,2-2.5,2-4.3c0-1.9-0.6-3.3-1.7-4.4c-1.2-1-3.8-2.1-7.9-3.2c-5.6-1.5-9.5-3.5-11.8-5.9c-2.3-2.4-3.5-5.8-3.5-10
			c0-5.5,1.8-9.9,5.5-13.4c3.6-3.5,8.4-5.2,14.2-5.2c3.3,0,6.3,0.4,9,1.3c2.8,0.9,5.5,2.1,8,3.8l-4.9,11.2c-1.7-1.5-3.5-2.6-5.5-3.4
			c-1.9-0.8-3.7-1.1-5.5-1.1c-1.8,0-3.3,0.5-4.6,1.4c-1.2,0.9-1.8,2-1.8,3.4c0,1.4,0.5,2.5,1.5,3.4c1.1,0.9,3.1,1.7,6,2.5
			c0.1,0,0.2,0,0.3,0.1c0.1,0,0.2,0,0.4,0.1c6.4,1.7,10.5,3.6,12.6,5.7c1.3,1.3,2.4,3,3.1,5c0.7,1.9,1,4.1,1,6.6c0,6-2,10.9-6,14.6
			c-4,3.7-9.3,5.5-15.9,5.5c-4.1,0-7.7-0.7-10.9-2c-3.2-1.3-6.3-3.5-9.4-6.4L546.3,47.6z"/>
		<path id="XMLID_29_" class="st0" d="M592.8,47.6c2.4,2.7,4.7,4.6,6.9,5.9c2.3,1.3,4.5,2,6.7,2c2.1,0,3.8-0.6,5.1-1.7
			c1.4-1.1,2-2.5,2-4.3c0-1.9-0.6-3.3-1.7-4.4c-1.2-1-3.8-2.1-7.9-3.2c-5.6-1.5-9.5-3.5-11.8-5.9c-2.3-2.4-3.5-5.8-3.5-10
			c0-5.5,1.8-9.9,5.5-13.4c3.6-3.5,8.4-5.2,14.2-5.2c3.3,0,6.3,0.4,9,1.3c2.8,0.9,5.5,2.1,8,3.8l-4.9,11.2c-1.7-1.5-3.5-2.6-5.5-3.4
			c-1.9-0.8-3.7-1.1-5.5-1.1c-1.8,0-3.3,0.5-4.6,1.4c-1.2,0.9-1.8,2-1.8,3.4c0,1.4,0.5,2.5,1.5,3.4c1.1,0.9,3.1,1.7,6,2.5
			c0.1,0,0.2,0,0.3,0.1c0.1,0,0.2,0,0.4,0.1c6.4,1.7,10.5,3.6,12.6,5.7c1.3,1.3,2.4,3,3.1,5c0.7,1.9,1,4.1,1,6.6c0,6-2,10.9-6,14.6
			c-4,3.7-9.3,5.5-15.9,5.5c-4.1,0-7.7-0.7-10.9-2c-3.2-1.3-6.3-3.5-9.4-6.4L592.8,47.6z"/>
	</g>
	<g id="XMLID_5_">
		<path id="XMLID_32_" class="st1" d="M673.4,66h-14.6V8.8h16.3c6.3,0,10.8,0.3,13.5,0.9c2.6,0.7,4.8,1.7,6.5,3.2
			c2.1,1.7,3.7,3.9,4.8,6.5c1.1,2.6,1.7,5.6,1.7,8.8c0,3.4-0.6,6.4-1.7,9c-1,2.6-2.6,4.7-4.8,6.4c-1.6,1.3-3.5,2.1-5.7,2.7
			c-2,0.5-5.5,0.8-10.5,0.8h-2.7h-2.8V66z M673.4,34.6h3c3.7,0,6.3-0.5,7.9-1.6c1.5-1,2.2-2.7,2.2-5.2c0-2.4-0.7-4.1-2.2-5.1
			c-1.4-1-4-1.5-7.8-1.5h-3.1V34.6z"/>
		<path id="XMLID_38_" class="st1" d="M709.4,66V8.8h16.3c3.2,0,5.8,0.1,8,0.2c2.2,0.1,4,0.4,5.4,0.7c2.4,0.6,4.6,1.6,6.5,3
			c2.1,1.6,3.7,3.6,4.7,6c1.1,2.3,1.7,5,1.7,8c0,4.4-1.1,8-3.3,10.8c-2.1,2.8-5.3,4.6-9.5,5.5l15.6,23h-17.6l-13.1-22.4V66H709.4z
			 M724.1,35.9h2.9c3.4,0,5.9-0.6,7.4-1.7c1.5-1.3,2.3-3.1,2.3-5.4c0-2.9-0.7-4.9-2.1-6.1c-1.5-1.2-3.9-1.8-7.3-1.8h-3.1V35.9z"/>
		<path id="XMLID_41_" class="st1" d="M819.5,37.6c0,4.1-0.7,8-2.2,11.6c-1.5,3.5-3.7,6.7-6.6,9.6c-2.9,2.8-6.2,5-10,6.5
			c-3.9,1.5-7.8,2.3-11.7,2.3c-3.9,0-7.8-0.8-11.7-2.3c-3.8-1.5-7.1-3.7-9.9-6.5c-2.8-2.7-5-5.9-6.6-9.7c-1.6-3.7-2.3-7.5-2.3-11.5
			s0.8-7.8,2.3-11.5c1.6-3.8,3.8-7,6.6-9.7c2.9-2.9,6.2-5.1,9.9-6.6c3.6-1.5,7.5-2.2,11.7-2.2s8.1,0.7,11.8,2.2
			c3.7,1.5,7,3.7,9.9,6.5c2.9,2.9,5.1,6.1,6.7,9.7C818.7,29.6,819.5,33.5,819.5,37.6z M788.9,54.3c4.3,0,7.9-1.6,10.8-4.8
			c1.4-1.6,2.5-3.4,3.2-5.4c0.7-2,1-4.2,1-6.6c0-4.8-1.4-8.8-4.3-12c-2.9-3.2-6.5-4.8-10.7-4.8c-4.3,0-7.9,1.6-10.7,4.8
			s-4.2,7.2-4.2,12c0,5,1.4,9,4.1,12.1C781,52.8,784.6,54.3,788.9,54.3z"/>
	</g>
	<g id="XMLID_3_">
		<path id="XMLID_44_" class="st0" d="M892.6,11.1v17c-2.2-2.4-4.3-4.2-6.3-5.3c-2.2-1.1-4.5-1.6-6.9-1.6c-4.5,0-8.1,1.5-10.9,4.6
			c-1,1.1-1.7,2.2-2.3,3.4c-0.6,1.2-1,2.5-1.3,4c-0.3,1.5-0.4,3-0.4,4.6c0,4.6,1.4,8.4,4.2,11.4c2.8,3,6.4,4.5,10.8,4.5
			c2.3,0,4.6-0.6,6.9-1.7c2-1,4.1-2.8,6.3-5.2v17.1c-2.9,1.4-5.4,2.3-7.4,2.7c-2.5,0.6-5,0.9-7.4,0.9c-3.1,0-6-0.4-8.7-1.1
			c-2.7-0.7-5.1-1.9-7.3-3.4c-4.3-2.9-7.5-6.5-9.7-10.8c-2.2-4.4-3.4-9.3-3.4-14.7c0-4.3,0.7-8.3,2.2-11.9c0.7-1.7,1.5-3.4,2.5-4.9
			c1-1.5,2.3-3.2,3.9-4.8c2.7-2.8,5.8-4.9,9.2-6.3c3.4-1.4,7.1-2.1,11.3-2.1c2.4,0,4.8,0.3,7.4,0.9C887.8,9.1,890.3,10,892.6,11.1z"
			/>
		<path id="XMLID_46_" class="st0" d="M901.4,66.1V8.9h16.3c3.2,0,5.8,0.1,8,0.2c2.2,0.1,4,0.4,5.4,0.7c2.4,0.6,4.6,1.6,6.5,3
			c2.1,1.6,3.7,3.6,4.7,6c1.1,2.3,1.7,5,1.7,8c0,4.4-1.1,8-3.3,10.8c-2.1,2.8-5.3,4.6-9.5,5.5l15.6,23h-17.6L916,43.7v22.4H901.4z
			 M916,35.9h2.9c3.4,0,5.9-0.6,7.4-1.7c1.5-1.3,2.3-3.1,2.3-5.4c0-2.9-0.7-4.9-2.1-6.1c-1.5-1.2-3.9-1.8-7.3-1.8H916V35.9z"/>
		<path id="XMLID_50_" class="st0" d="M952.7,66.1V8.9h35v12.6h-19.8v9.9h18.7v12.3h-18.7v9.6h19.8v12.8H952.7z"/>
		<path id="XMLID_53_" class="st0" d="M991.3,66.1l19.7-57.2h19.5l19.8,57.2h-15.5l-2.9-10.2h-22.1l-3,10.2H991.3z M1013.2,44.7
			h15.5l-5.8-18.9c-0.1-0.3-0.4-1.3-0.7-2.8c-0.4-1.8-0.8-3.4-1.2-4.9c-0.4,1.3-0.7,2.7-0.9,4c-0.4,1.3-0.8,2.5-1.1,3.7L1013.2,44.7
			z"/>
		<path id="XMLID_67_" class="st0" d="M1064.1,66.1V22.4h-12.8V8.9h41.2v13.5h-12.8v43.7H1064.1z"/>
		<path id="XMLID_71_" class="st0" d="M1100.5,66.1V8.9h15.7v57.2H1100.5z"/>
		<path id="XMLID_76_" class="st0" d="M1145.2,66.1l-24-57.2h16.6l11.4,32c0.2,0.7,0.4,1.5,0.6,2.4c0.3,1.4,0.7,3.1,1.3,5.3
			c0.3-1.6,0.7-3.1,1.2-4.7c0.3-1.5,0.6-2.5,0.8-3l11.4-32h16.6l-24,57.2H1145.2z"/>
		<path id="XMLID_78_" class="st0" d="M1185.7,66.1V8.9h35v12.6h-19.8v9.9h18.7v12.3h-18.7v9.6h19.8v12.8H1185.7z"/>
	</g>
	<path id="XMLID_56_" class="st1" d="M153,85.4C153,85.4,153,85.4,153,85.4C153,85.4,153,85.4,153,85.4c-0.2-0.5-0.5-1.1-0.7-1.6
		c-9.8-1.9-16.7-10.7-17.2-20.9c-0.5-11.5,10.1-21.3,21.3-21.3c1,0,2.1,0.1,3,0.2C152.2,18.1,130.1,0.9,104,0.9
		c-18.2,0-34.4,8.4-45,21.4c4.1,3.9,6.7,9.5,7,15.6c0.1,2.2-0.2,4.3-0.8,6.2c2,7.2-0.4,15.7-7.1,19.6c7.1,3.5,11.8,10.9,12.2,19.2
		c0.1,1.5-0.1,3-0.4,4.4c1.3,5.4,0.2,11.6-3.4,15.8c10.1,8.6,23.2,13.7,37.4,13.7c21.5,0,40.2-11.7,50.2-29
		C153.8,87,153.4,86.2,153,85.4L153,85.4z"/>
	<g id="XMLID_68_">
		<path id="XMLID_69_" class="st2" d="M103.3,117.4H76.5V8.5h29.9c11.6,0,19.9,0.6,24.7,1.7c4.8,1.2,8.8,3.2,12,5.9
			c3.8,3.2,6.8,7.2,8.8,11.9c2.1,4.8,3.1,10.2,3.1,16.1c0,6.3-1,11.8-3.1,16.5c-1.8,4.7-4.8,8.6-8.8,11.7c-2.9,2.3-6.4,3.9-10.5,4.9
			c-3.7,1-10.1,1.5-19.2,1.5h-4.9h-5.2V117.4z M103.3,55.7h5.4c6.8,0,11.6-1,14.4-2.9c2.7-1.8,4.1-5,4.1-9.5c0-4.3-1.3-7.5-4-9.3
			c-2.6-1.9-7.4-2.8-14.2-2.8h-5.7V55.7z"/>
	</g>
	<g id="XMLID_59_">
		<g id="XMLID_110_">
			<path id="XMLID_111_" class="st0" d="M9.3,115.4V7.5h29.6c11.9,0,20.4,0.4,25.5,1.2c4.8,0.7,9,2.1,12.5,4.1
				c3.9,2.3,7,5.2,9.1,8.8c2.1,3.7,3.2,8,3.2,13c0,6.2-1.6,11.1-4.7,14.7c-3.1,3.6-8.1,6.3-14.9,8.1c7.5,0.6,13.5,3.2,18,8
				c4.3,4.8,6.5,11.3,6.5,19.3c0,5.7-1.2,10.7-3.7,15.1c-2.5,4.5-5.9,7.9-10.4,10.2c-3.4,1.8-8,3.2-13.6,4.3
				c-5.8,0.8-14.7,1.2-26.6,1.2H9.3z M36.6,50.6h5.9c7.3,0,12.3-0.8,15-2.3c2.7-1.7,4.1-4.4,4.1-8.3c0-4.1-1.3-6.9-3.8-8.6
				c-2.8-1.7-7.7-2.6-14.8-2.6h-6.3V50.6z M36.6,93.4h10.3c7,0,11.9-0.9,14.7-2.7c2.9-1.7,4.4-4.6,4.4-8.6c0-4.4-1.3-7.6-4-9.5
				c-2.7-1.8-7.6-2.7-14.7-2.7H36.6V93.4z"/>
		</g>
	</g>
	<g id="XMLID_19_">
		<g id="XMLID_92_">
			<path id="XMLID_93_" class="st0" d="M207.7,14.4v30.9c-4.1-4.4-7.9-7.6-11.5-9.6c-4-1.9-8.2-2.9-12.5-2.9
				c-8.1,0-14.7,2.8-19.8,8.3c-1.8,2-3.2,4.1-4.3,6.2c-1.1,2.2-1.9,4.6-2.4,7.3c-0.5,2.7-0.8,5.5-0.8,8.3c0,8.3,2.6,15.3,7.7,20.8
				c5.2,5.4,11.7,8.2,19.7,8.2c4.3,0,8.4-1,12.5-3.1c3.6-1.8,7.4-5,11.5-9.5v31c-5.2,2.5-9.7,4.1-13.4,4.9
				c-4.6,1.1-9.1,1.6-13.5,1.6c-5.6,0-10.8-0.7-15.7-2c-4.9-1.3-9.3-3.4-13.2-6.1c-7.7-5.3-13.6-11.8-17.7-19.6
				c-4.1-8-6.1-17-6.1-26.7c0-7.9,1.3-15.1,4-21.6c1.2-3.2,2.7-6.2,4.5-9c1.8-2.8,4.2-5.7,7.1-8.8c5-5.1,10.5-8.9,16.7-11.4
				c6.1-2.5,13-3.8,20.5-3.8c4.3,0,8.8,0.5,13.5,1.6C198.9,10.7,203.4,12.3,207.7,14.4z"/>
		</g>
	</g>
	<g id="XMLID_2_">
		<path id="XMLID_9_" d="M360.1,93.1c0.8,0,2.8,0.1,4.7,0.1c1.9,0,3.6-0.1,4.5-0.1c0.1,0.1,0.1,0.8,0,1c-0.8,0.1-1.4,0.2-1.8,0.3
			c-0.8,0.2-1,0.7-1,1.8c-0.1,1.5-0.1,4.5-0.1,7.7c0,3.6,0,7,0.1,8.3c0,1,0.2,1.7,1.3,1.9c0.5,0.1,1.3,0.3,2.1,0.4
			c0.1,0.1,0.1,0.9-0.1,1c-0.9,0-2.9-0.1-4.6-0.1c-2.1,0-3.9,0.1-5,0.1c-0.2-0.1-0.2-0.9,0-1c0.8-0.1,1.3-0.1,1.8-0.3
			c1-0.2,1.2-0.7,1.3-1.5c0.1-1,0.1-4.7,0.1-9.4c0-3,0-5.3-0.1-7c-0.1-0.9-0.1-1.4-0.9-1.7c-0.5-0.2-1.2-0.3-2.2-0.4
			C359.9,94,360,93.2,360.1,93.1z"/>
		<path id="XMLID_13_" d="M372,114.2c0.5-0.1,0.7-0.6,0.8-1.3c0.1-1.1,0.1-3.6,0.1-5.9c0-1.4,0-2.3-0.1-2.9
			c-0.1-0.5-0.5-0.9-1.9-1.4c-0.1-0.2,0-0.7,0.2-0.8c1.4-0.1,3.5-0.8,4.4-1.3c0,0,0.1,0.1,0.1,0.3c0,0.4-0.1,1.4-0.1,2.1
			c0,0.1,0.1,0.1,0.2,0.1c1.9-1.5,3.6-2.3,4.9-2.3c1.5,0,2.7,0.7,3.5,1.9c0.7,1.1,0.9,2.5,0.9,4.2c0,2,0,5.3,0.1,6.5
			c0,0.3,0.1,0.6,0.4,0.7c0.6,0.3,1.1,0.4,1.8,0.5c0.1,0.2,0.1,0.9-0.1,1c-0.5,0-1.6-0.1-3.5-0.1c-1.7,0-2.7,0.1-3.6,0.1
			c-0.1-0.1-0.1-0.9,0-1c0.7-0.1,1.3-0.2,1.5-0.3c0.5-0.2,0.6-0.5,0.6-1.5c0-2,0.1-5.7-0.1-7c-0.1-0.6-0.3-1.5-1-2.1
			c-0.5-0.5-1.2-0.8-2.2-0.8s-2.2,0.4-3,1.2c-0.2,0.2-0.4,0.5-0.4,1.3c0,2.6,0,6,0.1,7.7c0,0.8,0.2,1.1,0.7,1.2
			c0.4,0.1,0.9,0.2,1.5,0.3c0.1,0.1,0,0.9-0.1,1c-0.5,0-1.5-0.1-3.5-0.1c-1.8,0-3.1,0.1-3.5,0.1c-0.1-0.1-0.1-0.9,0-1
			C371.2,114.4,371.6,114.3,372,114.2z"/>
		<path id="XMLID_31_" d="M390,114.2c0.5-0.1,0.7-0.6,0.8-1.3c0.1-1.1,0.1-3.6,0.1-5.9c0-1.4,0-2.3-0.1-2.9
			c-0.1-0.5-0.5-0.9-1.9-1.4c-0.1-0.2,0-0.7,0.2-0.8c1.4-0.1,3.5-0.8,4.4-1.3c0,0,0.1,0.1,0.1,0.3c0,0.4-0.1,1.4-0.1,2.1
			c0,0.1,0.1,0.1,0.2,0.1c1.9-1.5,3.6-2.3,4.9-2.3c1.5,0,2.7,0.7,3.5,1.9c0.7,1.1,0.9,2.5,0.9,4.2c0,2,0,5.3,0.1,6.5
			c0,0.3,0.1,0.6,0.4,0.7c0.6,0.3,1.1,0.4,1.8,0.5c0.1,0.2,0.1,0.9-0.1,1c-0.5,0-1.6-0.1-3.5-0.1c-1.7,0-2.7,0.1-3.6,0.1
			c-0.1-0.1-0.1-0.9,0-1c0.7-0.1,1.3-0.2,1.5-0.3c0.5-0.2,0.6-0.5,0.6-1.5c0-2,0.1-5.7-0.1-7c-0.1-0.6-0.3-1.5-1-2.1
			c-0.5-0.5-1.2-0.8-2.2-0.8s-2.2,0.4-3,1.2c-0.2,0.2-0.4,0.5-0.4,1.3c0,2.6,0,6,0.1,7.7c0,0.8,0.2,1.1,0.7,1.2
			c0.4,0.1,0.9,0.2,1.5,0.3c0.1,0.1,0,0.9-0.1,1c-0.5,0-1.5-0.1-3.5-0.1c-1.8,0-3.1,0.1-3.5,0.1c-0.1-0.1-0.1-0.9,0-1
			C389.2,114.4,389.6,114.3,390,114.2z"/>
		<path id="XMLID_36_" d="M422,107.9c0,2.8-1.1,5.2-3.3,6.6c-1,0.6-2.7,1.3-4.2,1.3c-5.3,0-7.2-4-7.2-7.7c0-2.8,1.3-4.8,3.1-6
			c1.3-0.8,3-1.4,4.7-1.4C419.5,100.7,422,103.9,422,107.9z M412.2,102.6c-0.9,0.6-1.8,1.9-1.8,4.6c0,4.2,2.1,7.1,5,7.1
			c0.8,0,1.6-0.2,2.2-0.8c1-0.9,1.4-2.3,1.4-4.5c0-4.2-1.9-7-5-7C413.4,102.1,412.7,102.2,412.2,102.6z"/>
		<path id="XMLID_60_" d="M423,101.1c0.6,0,1.9,0.1,3.5,0.1c1.5,0,2.8-0.1,3.5-0.1c0.2,0.1,0.2,0.9,0.1,1c-0.5,0.1-1.1,0.2-1.4,0.3
			c-0.3,0.1-0.3,0.4-0.3,0.5c0.4,1.4,3,8.1,3.2,8.6c0,0.1,0.1,0,0.2,0c0.8-1.8,2.3-5.8,2.8-7.5c0.4-1.2,0.1-1.4-0.3-1.6
			c-0.5-0.2-1-0.3-1.6-0.3c-0.1-0.2,0-1,0.1-1c0.4,0,1.8,0.1,3.2,0.1c1.3,0,2.5-0.1,3-0.1c0.1,0.1,0.1,0.9,0,1
			c-0.4,0.1-0.8,0.1-1.3,0.3c-0.7,0.3-1,0.7-1.4,1.6c-1,2.1-2.1,4.9-3.4,8.2c-0.6,1.5-0.9,2.6-1.2,3.4c-0.4,0-1.3,0-1.7,0
			c-0.3-1-0.6-2-1-3.2c-1-2.7-2.2-5.8-2.9-7.5c-0.8-1.9-0.9-2.2-1.8-2.5c-0.4-0.1-0.9-0.2-1.4-0.3
			C422.8,101.9,422.9,101.2,423,101.1z"/>
		<path id="XMLID_80_" d="M446.8,103.9c-0.6-0.9-1.7-1.4-2.7-1.4c-0.8,0-1.3,0.2-1.4,0.4c-0.4,0.3-1,1.4-1.5,2.6
			c-0.1,0.1-1.1-0.4-1-0.7c0.1-0.5,0.6-1.9,0.8-2.1c1.5-1.1,3.8-2,4.7-2c1.6,0,2.8,0.7,3.6,1.9c0.6,1,0.8,2.3,0.8,3.6
			c0,1.9-0.1,4.6-0.1,6.1c0,0.8,0.3,1.4,1.4,1.4c0.6,0,0.8,0,1.3-0.2c0,0.1,0,1-0.1,1.1c-0.9,0.9-2.1,1.3-3,1.3
			c-1,0-1.6-0.4-1.8-0.9c-0.1-0.2-0.2-0.6-0.3-0.9c0,0-0.1-0.1-0.1,0c-1.8,1.2-3.3,1.9-4.3,1.9c-0.7,0-1.4-0.4-2-0.9
			c-0.7-0.8-1.2-1.9-1.2-3.2c0-0.7,0.5-1.8,0.6-2.1c1.2-0.6,5.4-1.7,6.8-2.3c0.1,0,0.2-0.3,0.2-0.4c0.1-0.3,0-0.7,0-1
			C447.3,105.3,447.2,104.5,446.8,103.9z M447.1,108.4c-1.3,0.5-3.6,1.2-4.3,1.7c-0.1,0.1-0.4,0.8-0.4,1.2c0,1.4,1,2.4,2.5,2.4
			c0.5,0,1.3-0.2,1.8-0.6c0.3-0.1,0.4-0.4,0.4-0.8c0.1-0.8,0.1-3.1,0.1-3.7C447.3,108.5,447.2,108.4,447.1,108.4z"/>
		<path id="XMLID_83_" d="M458.1,102.9c-0.1,0-0.1,0.1-0.1,0.2c0,1.7,0,4.9,0,6.6c0,1.4,0.1,2.1,0.2,2.6c0.3,1,1.2,1.4,2.1,1.4
			c1,0,1.5-0.2,2.2-0.6c0.1,0.1,0,1-0.1,1.1c-0.9,1.1-2.4,1.6-3.6,1.6c-1.4,0-2.6-0.6-3.2-1.7c-0.5-0.9-0.5-1.8-0.5-4.1
			c0-2.1,0-5.3,0-6.7c0-0.1-0.1-0.3-0.2-0.3l-1.9-0.1c0-0.2,0.2-1,0.3-1.2c0.5-0.1,1.4-0.3,1.7-0.4c0,0,0.1-0.1,0.1-0.3v-3.1
			c0.6-0.3,1.9-1.2,2.3-1.7c0.2-0.1,0.5-0.1,0.6,0c-0.1,0.6-0.2,2.2-0.2,4.8c0,0.1,0.1,0.2,0.1,0.2c1.7,0,3.9-0.1,4.4-0.2
			c-0.1,0.5-0.3,1.4-0.3,2C461.3,103,459.4,102.9,458.1,102.9z"/>
		<path id="XMLID_85_" d="M471.1,115.5c-0.7,0-1.8-0.1-3.7-0.1c-1.5,0-2.9,0.1-3.5,0.1c-0.1-0.1-0.1-0.9,0-1
			c0.6-0.1,1.1-0.2,1.5-0.3c0.5-0.2,0.6-0.5,0.6-1.3c0.1-0.9,0.1-3.3,0.1-5.3c0-1.4,0-2.7,0-3.4c0-0.2,0-0.5-0.3-0.8
			c-0.4-0.4-1-0.6-1.7-0.9c-0.1-0.1,0-0.8,0.1-0.9c1.1,0,3.3-0.5,4.7-1c0,1.6,0,4.1,0,6.3c0,2,0,4.4,0,6c0,0.6,0.2,1,0.8,1.2
			c0.5,0.1,0.7,0.2,1.5,0.3C471.3,114.6,471.2,115.4,471.1,115.5z M468.3,97.3c-0.2,0.1-1.4,0.2-1.6,0.1c-0.5-0.3-0.8-0.8-0.9-1.5
			c0-0.2,0-0.9,0.2-1c0.3-0.3,1.1-0.6,1.7-0.6c0.6,0,1,0.2,1,0.3c0.2,0.3,0.4,0.7,0.4,1C469.1,96.2,468.8,96.9,468.3,97.3z"/>
		<path id="XMLID_89_" d="M487.9,107.9c0,2.8-1.1,5.2-3.3,6.6c-1,0.6-2.7,1.3-4.2,1.3c-5.3,0-7.2-4-7.2-7.7c0-2.8,1.3-4.8,3.1-6
			c1.3-0.8,3-1.4,4.7-1.4C485.4,100.7,487.9,103.9,487.9,107.9z M478.2,102.6c-0.9,0.6-1.8,1.9-1.8,4.6c0,4.2,2.1,7.1,5,7.1
			c0.8,0,1.6-0.2,2.2-0.8c1-0.9,1.4-2.3,1.4-4.5c0-4.2-1.9-7-5-7C479.3,102.1,478.6,102.2,478.2,102.6z"/>
		<path id="XMLID_95_" d="M491.6,114.2c0.5-0.1,0.7-0.6,0.8-1.3c0.1-1.1,0.1-3.6,0.1-5.9c0-1.4,0-2.3-0.1-2.9
			c-0.1-0.5-0.5-0.9-1.9-1.4c-0.1-0.2,0-0.7,0.2-0.8c1.4-0.1,3.5-0.8,4.4-1.3c0,0,0.1,0.1,0.1,0.3c0,0.4-0.1,1.4-0.1,2.1
			c0,0.1,0.1,0.1,0.2,0.1c1.9-1.5,3.6-2.3,4.9-2.3c1.5,0,2.7,0.7,3.5,1.9c0.7,1.1,0.9,2.5,0.9,4.2c0,2,0,5.3,0.1,6.5
			c0,0.3,0.1,0.6,0.4,0.7c0.6,0.3,1.1,0.4,1.8,0.5c0.1,0.2,0.1,0.9-0.1,1c-0.5,0-1.6-0.1-3.5-0.1c-1.7,0-2.7,0.1-3.6,0.1
			c-0.1-0.1-0.1-0.9,0-1c0.7-0.1,1.3-0.2,1.5-0.3c0.5-0.2,0.6-0.5,0.6-1.5c0-2,0.1-5.7-0.1-7c-0.1-0.6-0.3-1.5-1-2.1
			c-0.5-0.5-1.2-0.8-2.2-0.8s-2.2,0.4-3,1.2c-0.2,0.2-0.4,0.5-0.4,1.3c0,2.6,0,6,0.1,7.7c0,0.8,0.2,1.1,0.7,1.2
			c0.4,0.1,0.9,0.2,1.5,0.3c0.1,0.1,0,0.9-0.1,1c-0.5,0-1.5-0.1-3.5-0.1c-1.8,0-3.1,0.1-3.5,0.1c-0.1-0.1-0.1-0.9,0-1
			C490.8,114.4,491.2,114.3,491.6,114.2z"/>
	</g>
	<g id="XMLID_4_">
		<path id="XMLID_97_" d="M708.7,114.7c-1.2,0.4-4.7,1.4-7.8,1.4c-8.4,0-12.9-4.2-12.9-11.8c0-4.8,2.4-8.5,6.3-10.2
			c2-0.9,4.2-1.4,7-1.4c2.9,0,5,0.6,7.1,0.8c-0.3,1.3-0.6,4.1-0.6,5.7c-0.1,0.2-1,0.3-1.2,0.1c-0.3-2.7-0.7-3.7-1.8-4.3
			c-1.1-0.6-2.6-1-4.9-1c-5.6,0-8.3,4-8.3,9.9c0,6.2,3.3,11,9.8,11c1,0,1.9-0.1,2.4-0.5c0.5-0.3,0.7-0.9,0.8-1.5
			c0.1-1.1,0.1-2.4,0.1-3.7c-0.1-1.2-0.3-1.6-1.3-1.9c-0.6-0.1-1.3-0.2-2.4-0.4c-0.2-0.1-0.1-0.9,0-1c1.1,0,2.8,0.1,5,0.1
			c2.1,0,3.2-0.1,3.9-0.1c0.1,0.1,0.1,1,0,1.1c-0.4,0.1-0.9,0.1-1.2,0.3c-0.7,0.2-0.9,0.7-0.9,1.7c0,1.1-0.1,3.3,0,4
			c0,0.5,0.1,0.7,0.9,1C708.8,114,708.8,114.6,708.7,114.7z"/>
		<path id="XMLID_99_" d="M723,101.5c0,0.1,0,0.4,0,0.6c-0.1,0.4-0.8,1.8-1.1,2.3c0,0-0.3,0.1-0.3,0.1c-0.7-0.6-1.5-1.1-2.3-1.1
			c-0.7,0-1.4,0.8-1.9,1.5c-0.1,0.2-0.3,0.8-0.3,1.2c0,2.4,0,6.2,0.1,6.9c0,0.6,0.2,1,0.8,1.2c0.6,0.2,1.5,0.3,2.3,0.4
			c0.1,0.2,0,0.9-0.1,1c-0.4,0-2.8-0.1-4.2-0.1c-1.1,0-3,0.1-3.6,0.1c-0.1-0.1-0.1-0.9,0-1c0.4,0,1-0.1,1.4-0.3
			c0.4-0.1,0.6-0.4,0.6-1c0.1-0.6,0.1-3.6,0.1-6c0-1.3,0-2.4,0-2.8c-0.1-0.5-0.4-0.9-2-1.5c0-0.2,0.1-0.7,0.2-0.8
			c1.3-0.1,3.4-0.8,4.4-1.3c0.1,0,0.2,0.1,0.2,0.1c0,0.5-0.1,2.1-0.1,2.8c0,0.1,0.1,0.1,0.2,0.1c0.7-0.9,1.4-1.7,2.3-2.3
			c0.6-0.4,1.2-0.7,1.8-0.7S722.7,101,723,101.5z"/>
		<path id="XMLID_101_" d="M738.8,107.9c0,2.8-1.1,5.2-3.3,6.6c-1,0.6-2.7,1.3-4.2,1.3c-5.3,0-7.2-4-7.2-7.7c0-2.8,1.3-4.8,3.1-6
			c1.3-0.8,3-1.4,4.7-1.4C736.2,100.7,738.8,103.9,738.8,107.9z M729,102.6c-0.9,0.6-1.8,1.9-1.8,4.6c0,4.2,2.1,7.1,5,7.1
			c0.8,0,1.6-0.2,2.2-0.8c1-0.9,1.4-2.3,1.4-4.5c0-4.2-1.9-7-5-7C730.1,102.1,729.4,102.2,729,102.6z"/>
		<path id="XMLID_105_" d="M739.7,101.1c0.6,0,1.8,0.1,3.6,0.1c1.3,0,3-0.1,3.7-0.1c0.1,0.1,0.1,0.8,0,1c-0.5,0.1-1.2,0.2-1.4,0.3
			c-0.4,0.1-0.4,0.4-0.4,0.7c0.3,1.4,2,7.2,2.5,8.5c0.1,0,0.1,0,0.1,0c0.9-2.3,2.8-7.3,3.5-9.6c0.4,0.1,1.4,0,1.8,0
			c0.2,0.8,0.5,1.7,0.9,2.9c0.9,2.6,2.3,6.2,2.5,6.8c0,0,0.1,0.1,0.1,0c0.6-1.7,2.3-6.7,2.7-8.1c0.1-0.6,0.1-0.9-0.6-1.1
			c-0.4-0.1-0.9-0.2-1.7-0.3c-0.1-0.3,0-0.9,0.1-1c0.5,0,2,0.1,3.2,0.1c1.5,0,2.4-0.1,3.1-0.1c0.1,0.2,0.1,0.9,0,1
			c-0.5,0.1-0.6,0.1-1,0.3c-1,0.3-1.3,0.8-1.7,1.7c-0.8,2.1-3.5,9.3-4.2,11.6c-0.4-0.1-1.4,0-1.8,0c-0.6-2.2-3-8.5-3.5-9.5
			c0,0-0.1,0-0.2,0c-0.7,2-2.7,6.9-3.6,9.5c-0.4-0.1-1.3-0.1-1.7,0c-0.8-2.9-2.6-8.9-3.4-11.1c-0.5-1.5-0.8-1.9-1.5-2.2
			c-0.4-0.1-0.9-0.2-1.4-0.2C739.4,101.9,739.5,101.2,739.7,101.1z"/>
		<path id="XMLID_107_" d="M769.5,102.9c-0.1,0-0.1,0.1-0.1,0.2c0,1.7,0,4.9,0,6.6c0,1.4,0.1,2.1,0.2,2.6c0.3,1,1.2,1.4,2.1,1.4
			c1,0,1.5-0.2,2.2-0.6c0.1,0.1,0,1-0.1,1.1c-0.9,1.1-2.4,1.6-3.6,1.6c-1.4,0-2.6-0.6-3.2-1.7c-0.5-0.9-0.5-1.8-0.5-4.1
			c0-2.1,0-5.3,0-6.7c0-0.1-0.1-0.3-0.2-0.3l-1.9-0.1c0-0.2,0.2-1,0.3-1.2c0.5-0.1,1.4-0.3,1.7-0.4c0,0,0.1-0.1,0.1-0.3v-3.1
			c0.6-0.3,1.9-1.2,2.3-1.7c0.2-0.1,0.5-0.1,0.6,0c-0.1,0.6-0.2,2.2-0.2,4.8c0,0.1,0.1,0.2,0.1,0.2c1.7,0,3.9-0.1,4.4-0.2
			c-0.1,0.5-0.3,1.4-0.3,2C772.7,103,770.8,102.9,769.5,102.9z"/>
		<path id="XMLID_109_" d="M774.7,92.2c2.2-0.2,4.3-0.7,5.4-1.2c0.1,0,0.3,0.4,0.3,0.5c-0.3,0.6-0.4,0.9-0.4,3.4c0,2.2,0,6.9,0,7.9
			c0,0.1,0.1,0.1,0.2,0c1.9-1.4,3.6-2.2,4.9-2.2c2.8,0,4.5,2.2,4.5,5.8c0,2,0,5.1,0,6.7c0,0.4,0.2,0.7,0.5,0.9
			c0.5,0.3,1,0.3,1.8,0.4c0.1,0.1,0,1-0.1,1c-0.6,0-2-0.1-3.6-0.1c-1.4,0-3,0.1-3.4,0.1c-0.1-0.1-0.1-0.9,0-1
			c0.6-0.1,1.1-0.1,1.4-0.3c0.5-0.2,0.7-0.4,0.7-1.9c0-1.8,0.1-5.4-0.1-7c-0.2-1-1-2.6-3.3-2.6c-0.9,0-2,0.4-2.8,1
			c-0.3,0.2-0.4,0.6-0.4,0.9c0,2.5,0,7,0.1,8c0.1,1.2,0.2,1.4,0.9,1.7c0.4,0.1,0.7,0.1,1.4,0.2c0.2,0.1,0.1,0.9,0,1
			c-0.5,0-1.7-0.1-3.8-0.1c-1.8,0-2.8,0.1-3.5,0.1c-0.1-0.1-0.1-0.9,0-1c0.6-0.1,1-0.1,1.3-0.3c0.6-0.2,0.8-0.5,0.8-1.5
			c0-0.9,0.1-5.1,0.1-6c0-8.7,0-11-0.1-12.3c-0.1-0.5-0.2-0.9-0.7-1c-0.4-0.1-1.1-0.2-1.7-0.3C774.5,93,774.5,92.2,774.7,92.2z"/>
	</g>
	<g id="XMLID_16_">
		<path id="XMLID_116_" d="M977.1,93.1c0.9,0,3,0.1,4.1,0.1c2.7,0,4.5-0.1,6-0.1c4.2,0,6.4,2.5,6.4,5.5s-1.9,4.8-4.1,5.8
			c-0.1,0.1-0.1,0.2-0.1,0.3c1.3,2,4.1,6,5.9,7.8c1.5,1.5,2,1.7,4.1,2c0.1,0.1,0,0.9-0.2,1c-1.5,0.1-4.4,0-5.8-0.7
			c-0.5-0.3-1.1-0.7-1.7-1.4c-1.4-1.6-3.6-5.2-4.9-7.2c-0.3-0.4-0.6-0.5-0.9-0.5c-0.5-0.1-2.1,0-2.6,0c-0.1,0-0.1,0.2-0.1,0.2
			c0,2,0,5.3,0.1,6.5c0.1,1.2,0.3,1.5,1.2,1.7c0.5,0.1,1.2,0.2,2,0.3c0.2,0.1,0.1,0.9-0.1,1c-0.7,0-2.4-0.1-4.8-0.1
			c-2.3,0-3.9,0.1-4.6,0.1c-0.2-0.1-0.2-0.9,0-1c0.8-0.1,1.4-0.2,1.8-0.3c0.9-0.2,1.2-0.6,1.2-2c0-0.8,0.1-5.7,0.1-7.7
			c0-3.7,0-7.3,0-8.4c0-1-0.3-1.4-1.2-1.7c-0.5-0.1-1.2-0.2-1.9-0.3C976.8,94,976.9,93.2,977.1,93.1z M983.5,94.6
			c-0.1,0.1-0.3,0.4-0.3,0.5c-0.1,1.2-0.1,6.1-0.1,8.9c0,0.1,0.1,0.2,0.2,0.2c2.4,0.1,4,0,4.6-0.3c1.2-0.5,2.3-1.8,2.3-4.2
			c0-3.4-1.7-5.4-5.6-5.4C984.5,94.4,983.9,94.4,983.5,94.6z"/>
		<path id="XMLID_119_" d="M1012.3,112.1c0,0.3-0.1,0.9-0.2,1c-1.6,1.8-4.1,2.7-5.7,2.7c-1.9,0-3.3-0.6-4.4-1.7
			c-1.5-1.5-2.1-3.7-2.1-5.7c0-3.2,1.3-5.3,3.2-6.5c1.1-0.7,2.7-1.2,3.9-1.2c3.5,0,4.8,3.1,5,5.1c0,0.1,0.2,0.3,0.5,0.4
			c0,0.1-0.2,0.8-0.3,0.8c-1.5,0.4-6.4,0.7-9.4,0.8c-0.1,0-0.2,0.2-0.2,0.4c0.1,1.2,0.6,2.7,1.5,3.7c1.1,1.1,2.3,1.6,3.9,1.6
			c1.4,0,2.8-0.4,4.1-1.5C1012.2,112,1012.2,112,1012.3,112.1z M1002.7,106.2c0,0.1,0.1,0.3,0.2,0.3c1.2,0.1,5.4-0.1,6.1-0.2
			c0.1-0.1,0.2-0.2,0.2-0.3c-0.2-1.8-1.4-3.9-3.3-3.9C1004.1,102,1002.9,103.6,1002.7,106.2z"/>
		<path id="XMLID_122_" d="M1013.1,101.1c0.6,0,1.9,0.1,3.5,0.1c1.5,0,2.8-0.1,3.5-0.1c0.2,0.1,0.2,0.9,0.1,1
			c-0.5,0.1-1.1,0.2-1.4,0.3c-0.3,0.1-0.3,0.4-0.3,0.5c0.4,1.4,3,8.1,3.2,8.6c0,0.1,0.1,0,0.2,0c0.8-1.8,2.3-5.8,2.8-7.5
			c0.4-1.2,0.1-1.4-0.3-1.6c-0.5-0.2-1-0.3-1.6-0.3c-0.1-0.2,0-1,0.1-1c0.4,0,1.8,0.1,3.2,0.1c1.3,0,2.5-0.1,3-0.1
			c0.1,0.1,0.1,0.9,0,1c-0.4,0.1-0.8,0.1-1.3,0.3c-0.7,0.3-1,0.7-1.4,1.6c-1,2.1-2.1,4.9-3.4,8.2c-0.6,1.5-0.9,2.6-1.2,3.4
			c-0.4,0-1.3,0-1.7,0c-0.3-1-0.6-2-1-3.2c-1-2.7-2.2-5.8-2.9-7.5c-0.8-1.9-0.9-2.2-1.8-2.5c-0.4-0.1-0.9-0.2-1.4-0.3
			C1012.9,101.9,1013,101.2,1013.1,101.1z"/>
		<path id="XMLID_124_" d="M1042.1,112.1c0,0.3-0.1,0.9-0.2,1c-1.6,1.8-4.1,2.7-5.7,2.7c-1.9,0-3.3-0.6-4.4-1.7
			c-1.5-1.5-2.1-3.7-2.1-5.7c0-3.2,1.3-5.3,3.2-6.5c1.1-0.7,2.7-1.2,3.9-1.2c3.5,0,4.8,3.1,5,5.1c0,0.1,0.2,0.3,0.5,0.4
			c0,0.1-0.2,0.8-0.3,0.8c-1.5,0.4-6.4,0.7-9.4,0.8c-0.1,0-0.2,0.2-0.2,0.4c0.1,1.2,0.6,2.7,1.5,3.7c1.1,1.1,2.3,1.6,3.9,1.6
			c1.4,0,2.8-0.4,4.1-1.5C1042,112,1042,112,1042.1,112.1z M1032.5,106.2c0,0.1,0.1,0.3,0.2,0.3c1.2,0.1,5.4-0.1,6.1-0.2
			c0.1-0.1,0.2-0.2,0.2-0.3c-0.2-1.8-1.4-3.9-3.3-3.9C1033.9,102,1032.7,103.6,1032.5,106.2z"/>
		<path id="XMLID_127_" d="M1045.3,114.2c0.5-0.1,0.7-0.6,0.8-1.3c0.1-1.1,0.1-3.6,0.1-5.9c0-1.4,0-2.3-0.1-2.9
			c-0.1-0.5-0.5-0.9-1.9-1.4c-0.1-0.2,0-0.7,0.2-0.8c1.4-0.1,3.5-0.8,4.4-1.3c0,0,0.1,0.1,0.1,0.3c0,0.4-0.1,1.4-0.1,2.1
			c0,0.1,0.1,0.1,0.2,0.1c1.9-1.5,3.6-2.3,4.9-2.3c1.5,0,2.7,0.7,3.5,1.9c0.7,1.1,0.9,2.5,0.9,4.2c0,2,0,5.3,0.1,6.5
			c0,0.3,0.1,0.6,0.4,0.7c0.6,0.3,1.1,0.4,1.8,0.5c0.1,0.2,0.1,0.9-0.1,1c-0.5,0-1.6-0.1-3.5-0.1c-1.7,0-2.7,0.1-3.6,0.1
			c-0.1-0.1-0.1-0.9,0-1c0.7-0.1,1.3-0.2,1.5-0.3c0.5-0.2,0.6-0.5,0.6-1.5c0-2,0.1-5.7-0.1-7c-0.1-0.6-0.3-1.5-1-2.1
			c-0.5-0.5-1.2-0.8-2.2-0.8s-2.2,0.4-3,1.2c-0.2,0.2-0.4,0.5-0.4,1.3c0,2.6,0,6,0.1,7.7c0,0.8,0.2,1.1,0.7,1.2
			c0.4,0.1,0.9,0.2,1.5,0.3c0.1,0.1,0,0.9-0.1,1c-0.5,0-1.5-0.1-3.5-0.1c-1.8,0-3.1,0.1-3.5,0.1c-0.1-0.1-0.1-0.9,0-1
			C1044.5,114.4,1044.9,114.3,1045.3,114.2z"/>
		<path id="XMLID_129_" d="M1061.6,101.4c1.4,0,4.1-0.3,5-0.6c-0.1,0.9-0.2,2.8-0.2,7c0,1.9,0,3.1,0.2,3.7c0.3,1.2,1.1,2.1,3,2.1
			c1.1,0,2.1-0.4,3-1.1c0.2-0.2,0.4-0.5,0.4-0.9c0-0.5,0-3.5,0-7.8c0-0.4-0.1-0.9-0.7-1c-0.5-0.2-1.3-0.3-2.3-0.4
			c-0.1-0.2,0-0.9,0.2-1c1.9,0,4.9-0.3,5.7-0.5c-0.1,0.6-0.1,1.8-0.1,3.1l0,8.1c0,1,0.2,1.3,0.8,1.3c0.5,0,1,0,1.5-0.1
			c0,0.2,0,0.9-0.1,1c-1.3,0.5-4,1.3-4.7,1.5c-0.1,0-0.2-0.2-0.2-0.3c0-0.4,0-1.5,0-2c0-0.1-0.1-0.1-0.2-0.1
			c-2.1,1.7-3.6,2.3-4.8,2.3c-3.5,0-4.2-2.4-4.3-4.9c0-1.7,0.1-5.5,0-7c0-0.6-0.1-1-0.6-1.2c-0.3-0.1-1-0.2-1.7-0.3
			C1061.4,102.2,1061.4,101.5,1061.6,101.4z"/>
		<path id="XMLID_131_" d="M1092.4,112.1c0,0.3-0.1,0.9-0.2,1c-1.6,1.8-4.1,2.7-5.7,2.7c-1.9,0-3.3-0.6-4.4-1.7
			c-1.5-1.5-2.1-3.7-2.1-5.7c0-3.2,1.3-5.3,3.2-6.5c1.1-0.7,2.7-1.2,3.9-1.2c3.5,0,4.8,3.1,5,5.1c0,0.1,0.2,0.3,0.5,0.4
			c0,0.1-0.2,0.8-0.3,0.8c-1.5,0.4-6.4,0.7-9.4,0.8c-0.1,0-0.2,0.2-0.2,0.4c0.1,1.2,0.6,2.7,1.5,3.7c1.1,1.1,2.3,1.6,3.9,1.6
			c1.4,0,2.8-0.4,4.1-1.5C1092.3,112,1092.3,112,1092.4,112.1z M1082.8,106.2c0,0.1,0.1,0.3,0.2,0.3c1.2,0.1,5.4-0.1,6.1-0.2
			c0.1-0.1,0.2-0.2,0.2-0.3c-0.2-1.8-1.4-3.9-3.3-3.9C1084.2,102,1083,103.6,1082.8,106.2z"/>
	</g>
</g>
</svg>
